<?xml version="1.0" standalone="no"?>
<!DOCTYPE svg PUBLIC "-//W3C//DTD SVG 20010904//EN"
 "http://www.w3.org/TR/2001/REC-SVG-20010904/DTD/svg10.dtd">
<svg version="1.0" xmlns="http://www.w3.org/2000/svg"
 width="500.000000pt" height="500.000000pt" viewBox="0 0 500.000000 500.000000"
 preserveAspectRatio="xMidYMid meet">
<metadata>
Created by potrace 1.11, written by Peter Selinger 2001-2013
</metadata>
<g transform="translate(0.000000,500.000000) scale(0.100000,-0.100000)"
fill="#000000" stroke="none">
<path d="M485 4266 c-111 -27 -209 -106 -258 -206 -33 -69 -35 -81 -52 -330
-3 -41 -7 -100 -10 -130 -4 -51 -8 -104 -20 -295 -3 -38 -7 -99 -10 -135 -24
-315 -26 -370 -10 -429 29 -109 107 -204 210 -252 75 -35 87 -37 375 -55 147
-9 229 -38 301 -107 30 -29 323 -403 369 -470 31 -47 99 -107 121 -108 43 -2
73 3 90 15 10 6 122 114 251 239 128 125 249 237 268 250 91 61 161 71 400 53
170 -13 190 -13 245 -3 116 21 222 103 275 211 31 64 35 87 45 226 3 47 8 110
10 140 2 30 7 96 10 145 3 50 8 108 10 130 2 22 7 83 10 135 4 52 8 113 10
135 24 294 23 357 -1 431 -35 104 -103 181 -201 226 -74 35 -88 37 -333 53
-52 3 -115 8 -140 10 -25 2 -85 7 -135 10 -49 3 -119 8 -155 10 -36 3 -94 7
-130 10 -62 5 -110 8 -281 20 -42 3 -105 7 -140 10 -35 2 -100 7 -144 10 -44
3 -105 8 -135 10 -30 2 -95 7 -145 10 -49 3 -112 8 -140 10 -27 2 -84 6 -125
9 -41 3 -113 8 -160 11 -184 12 -227 12 -275 1z m1013 -585 c49 -25 99 -76
124 -124 l19 -39 24 32 c34 46 56 65 106 91 62 33 176 33 237 1 99 -53 162
-163 162 -288 0 -126 -87 -268 -230 -377 -19 -14 -102 -79 -185 -143 -82 -64
-156 -118 -163 -121 -7 -3 -63 48 -130 118 -65 68 -149 156 -186 194 -121 127
-160 204 -173 342 -13 142 81 289 209 328 55 16 139 10 186 -14z"/>
<path d="M3249 2828 c-3 -78 -16 -219 -24 -263 -18 -97 -72 -194 -154 -275
-73 -72 -157 -121 -247 -145 -56 -15 -189 -20 -279 -11 -22 3 -74 7 -117 10
l-76 6 -46 -108 c-50 -118 -57 -160 -44 -235 20 -111 86 -189 206 -244 210
-97 263 -126 297 -161 49 -50 67 -88 108 -222 20 -63 55 -180 80 -259 46 -152
66 -184 117 -194 35 -8 58 1 295 108 264 119 281 125 351 126 56 1 110 -15
207 -60 182 -86 208 -94 287 -95 66 -1 84 3 141 31 99 49 117 77 262 398 25
55 61 134 80 175 19 41 51 113 72 160 21 47 53 118 71 158 61 132 67 218 20
318 -43 91 -86 122 -318 228 -32 14 -82 37 -110 50 -29 13 -172 78 -318 144
-314 142 -310 140 -608 276 -128 58 -237 106 -242 106 -6 0 -10 -10 -11 -22z
m506 -537 c115 -52 166 -186 114 -301 -38 -85 -103 -129 -195 -135 -174 -11
-295 166 -219 320 29 60 41 76 77 99 68 44 148 50 223 17z m-325 -459 c95 -28
151 -56 227 -113 128 -96 203 -199 203 -276 0 -21 -9 -57 -20 -80 l-19 -43
-78 36 c-43 20 -116 53 -163 74 -47 21 -116 52 -155 70 -125 58 -379 172 -413
187 l-32 13 24 48 c29 57 50 77 102 96 54 20 238 13 324 -12z"/>
</g>
</svg>
